<svg width="2812" height="450" viewBox="0 0 2812 450" fill="none" xmlns="http://www.w3.org/2000/svg">
<g clip-path="url(#clip0_154_5)">
<path fill-rule="evenodd" clip-rule="evenodd" d="M1632.88 96.5711L1632.79 96.527C1643.28 85.0671 1654.91 72.8962 1667.08 61.186C1652.27 53.9671 1638.6 45.7841 1625.37 37.8682C1596.7 20.7154 1570.12 4.81539 1538.67 2.68754C1514.28 1.17735 1489.86 5.21474 1467.24 14.4965C1467.24 14.4965 1455.02 -2.10329 1417.37 3.27589C1379.72 8.65508 1263.75 57.1097 1164.93 215.123C1075.6 357.966 1117.57 439.873 1181.74 438.988C1251.28 438.023 1317.41 360.697 1339.85 296.946C1362.28 233.194 1335.81 215.922 1315.48 217.561C1293 219.452 1253.29 239.456 1231.44 283.666C1209.59 327.877 1209.59 355.108 1209.59 355.108C1218.52 345.737 1228.23 337.147 1238.63 329.431C1247.98 322.126 1258.28 316.132 1269.26 311.611C1271.83 300.188 1275.65 289.084 1280.64 278.496C1288.54 262.024 1301.07 244.876 1316.53 241.011C1347.91 233.152 1332.87 290.389 1309.81 327.708C1297.41 347.627 1253.42 405.243 1215.64 405.243C1177.87 405.243 1170.64 368.849 1178.58 334.683C1186.52 300.517 1197.58 257.317 1252.79 178.645C1308 99.9751 1367.7 53.3275 1402.28 33.786C1437.79 13.656 1452.24 22.4812 1452.24 22.4812C1452.24 22.4812 1406.91 50.3017 1381.11 83.9216C1356.49 116.029 1341.74 152.128 1353.17 169.82C1364.09 186.672 1402.45 187.009 1444.76 125.989C1486.53 65.7247 1476.03 29.8777 1476.03 29.8777C1478.78 28.9836 1481.58 28.2814 1484.43 27.7765C1504.81 25.0447 1521.11 30.4659 1546.32 43.4097C1558.62 49.7243 1570.68 57.8122 1583.57 66.451C1598.37 76.3663 1614.25 87.0097 1632.79 96.527L1632.75 96.5711H1632.88ZM1461.74 34.5424C1461.74 34.5424 1434.85 45.2587 1403.59 79.7191C1372.33 114.179 1354.09 152.968 1367.58 163.222C1372.75 167.131 1384.68 167.803 1406.36 148.304C1426.35 130.938 1442.04 109.174 1452.2 84.7201C1465.39 52.5458 1462.19 36.7722 1461.78 34.7578C1461.75 34.6356 1461.74 34.564 1461.74 34.5424Z" fill="white"/>
<path d="M1687.35 116.091L1687.33 116.113C1760.78 130.653 1825.1 85.1402 1859.31 46.3934C1871.79 32.5274 1882.53 17.1865 1891.28 0.712402C1875.71 16.9321 1858.27 31.2629 1839.35 43.4097L1839.14 43.3676C1807.29 63.7918 1763.21 82.3246 1720.86 78.2483C1710.15 89.3428 1698.68 102.16 1687.25 116.071L1687.35 116.091Z" fill="white"/>
<path fill-rule="evenodd" clip-rule="evenodd" d="M1713.21 377.172C1707.12 386.921 1700.19 405.621 1720.31 393.982C1744.81 379.818 1779.73 326.74 1779.73 326.74H1795.52C1781.13 348.923 1765.09 369.994 1747.54 389.779C1722.71 417.305 1692.41 442.309 1671.07 439.83C1646.15 436.93 1653.97 404.192 1653.97 404.192C1653.97 404.192 1618.17 442.015 1593.59 439.452C1560.27 435.753 1570.44 394.569 1570.44 394.569C1570.44 394.569 1532.62 440.798 1507.07 439.409C1466.82 437.099 1476.95 387.972 1488.13 353.594C1494.13 335.146 1499.68 320.647 1499.68 320.647C1499.68 320.647 1495.69 321.698 1487.08 322.958C1482.58 323.588 1474.47 324.052 1474.47 324.052C1465.23 340.346 1455.16 356.152 1444.3 371.414C1430.9 389.232 1373.97 450.461 1340.35 438.192C1309.34 426.845 1319.59 379.357 1337.66 341.534C1364.01 286.524 1438.12 207.475 1480.86 217.855C1525.19 228.613 1481.87 309.469 1481.87 309.469C1481.87 309.469 1481.87 309.762 1482.33 309.973C1485.12 310.477 1488 310.32 1490.73 309.51C1496.27 308.389 1501.7 306.772 1506.95 304.677C1506.95 304.677 1551.49 211.383 1600.69 150.363C1649.89 89.3427 1748.17 -15.6353 1786.7 9.78975C1796.11 16.0514 1791.83 37.5682 1779.14 63.7076C1773.42 65.5164 1767.61 67.0313 1761.74 68.2463C1768.78 56.5738 1774.1 43.949 1777.54 30.7602C1783.34 -0.758493 1709.73 65.6829 1657.12 137.209C1625.48 180.298 1597.38 225.875 1573.08 273.496C1582.59 267.718 1591.66 261.256 1600.23 254.164C1623.7 234.7 1646 213.875 1667.04 191.799C1687.22 171.005 1706.14 149.029 1723.72 125.989C1729.35 125.724 1734.96 125.149 1740.52 124.265C1721.29 150.351 1700.34 175.117 1677.79 198.397C1675.93 200.255 1674.06 202.128 1672.18 204.011C1652.79 223.432 1632.35 243.911 1614.35 259.081C1596.77 274.117 1578.23 287.989 1558.84 300.602C1558.84 300.602 1512.62 393.392 1537.83 399.359C1552.54 402.889 1581.61 358.135 1581.61 358.135C1581.61 358.135 1619.43 300.265 1642.37 274.084C1673.38 238.783 1700.23 218.443 1726.91 217.897C1742.54 217.603 1751.74 234.286 1751.74 234.286L1759.09 222.898H1804.35C1804.35 222.898 1719.85 366.286 1713.09 377.086L1713.21 377.172ZM1741.57 250.339C1742.13 249.365 1742.58 248.337 1742.92 247.273C1742.7 245.592 1741.92 244.037 1740.7 242.867C1739.47 241.697 1737.88 240.982 1736.2 240.842C1729.22 240.507 1719.64 241.85 1694.64 269.545C1673.87 292.477 1656 317.884 1641.45 345.19C1627.12 371.371 1621.32 390.87 1629.56 395.915C1632.23 397.287 1635.32 397.602 1638.21 396.797C1643.8 395.451 1650.1 390.24 1659.73 379.105C1663.32 374.931 1667.25 369.356 1671.73 362.984L1671.78 362.923C1672.88 361.359 1674.01 359.743 1675.19 358.092C1691.74 335.567 1733.34 264.629 1741.57 250.299V250.339ZM1481.65 280.429C1485.86 269.503 1491.15 248.071 1480.1 239.665C1468.21 230.715 1438.08 251.685 1437.79 273.285C1437.49 294.887 1459.09 305.266 1464.26 306.652C1467.2 307.451 1468.21 307.325 1469.64 304.972C1474.21 297.108 1478.22 288.936 1481.65 280.514V280.429ZM1458.76 320.564C1451.25 317.095 1444.26 312.628 1437.96 307.285C1431.61 301.984 1426.3 295.558 1422.28 288.331C1421.94 287.739 1421.59 288.126 1421.22 288.538C1421.14 288.625 1421.06 288.713 1420.98 288.792C1420.51 289.267 1418.62 291.15 1402.49 314.764C1386.28 338.508 1361.57 387.425 1384.01 395.788C1398.38 401.125 1422.28 375.952 1435.39 359.269C1444.27 347.632 1452.31 335.387 1459.47 322.623C1460.14 321.194 1459.47 320.857 1458.76 320.564Z" fill="white"/>
<path d="M1204 113.759H1160.98L1136.65 153.094H1179.68L1204 113.759Z" fill="white"/>
<path fill-rule="evenodd" clip-rule="evenodd" d="M1103 221.385H1118.63C1118.63 221.385 1039.63 335.567 994.969 330.356C970.053 327.456 977.447 296.735 977.447 296.735C977.447 296.735 942.362 337.709 910.22 329.515C881.059 322.034 899.883 273.58 899.883 273.58C899.386 273.78 897.553 275.542 894.646 278.336C878.118 294.221 826.866 343.478 789.167 328.968C742.949 311.067 766.855 251.516 775.681 233.613C783.158 218.527 791.437 203.819 791.437 203.819C791.437 203.819 784.335 205.836 779.881 206.844C775.429 207.853 768.747 209.156 768.747 209.156C768.747 209.156 746.814 244.834 733.411 262.611C720.007 280.388 662.989 341.577 629.416 329.389C595.845 317.201 604.207 270.218 623.029 232.731C653.62 172.216 726.225 97.8319 770.09 109.011C813.957 120.189 777.696 191.925 777.696 191.925C777.696 191.925 786.479 193.06 807.528 178.688C816.223 172.77 825.7 163.989 835.815 154.621C861.037 131.255 890.203 104.235 920.975 108.884C941.312 111.952 960.262 132.838 934.338 172.468C925.934 185.075 912.11 196.59 901.438 185.328C894.799 178.394 900.596 165.576 907.572 156.835C910.299 153.273 913.86 150.436 917.941 148.575C922.022 146.713 926.498 145.884 930.975 146.16C930.975 146.16 938.12 129.729 919.925 130.065C905.177 130.359 867.865 164.693 846.815 199.406C827.739 231.388 798.536 285.683 827.739 297.533C854.673 308.419 905.932 247.565 929.672 215.67C953.412 183.773 1007.45 111.49 1052.83 108.59C1068.46 107.582 1077.74 121.828 1077.74 121.828L1082.99 113.423H1128.29C1128.29 113.423 1042.99 256.266 1036.31 266.983C1031.06 275.387 1024.09 294.424 1043.41 283.793C1062.74 273.159 1103 221.385 1103 221.385ZM1000.26 249.836C1018.58 224.621 1069.09 136.789 1069.09 136.789C1068.87 135.109 1068.09 133.555 1066.86 132.384C1065.64 131.214 1064.05 130.499 1062.37 130.359C1055.39 130.023 1043.79 132.376 1020.35 161.373C996.902 190.371 979.422 213.442 966.397 237.438C952.027 263.619 945.766 282.112 954.002 287.111C956.679 288.466 959.761 288.779 962.656 287.993C968.035 286.65 975.051 281.27 984.675 270.176C989.213 265.007 994.337 258.03 1000.35 249.836H1000.26ZM769.46 130.905C757.569 121.912 727.445 142.925 727.15 164.525C726.855 186.126 754.46 192.85 758.032 193.018C758.829 193.228 759.672 193.169 760.433 192.85C761.193 192.531 761.825 191.969 762.235 191.253C765.465 184.921 768.369 178.427 770.932 171.796C775.134 160.869 780.384 139.436 769.334 131.031L769.46 130.905ZM751.394 206.676C743.196 204.112 735.359 200.511 728.075 195.96C720.968 191.37 715.178 185.013 711.268 177.511C710.901 176.888 710.503 177.351 710.127 177.786C710.073 177.85 710.019 177.914 709.965 177.973C709.545 178.436 707.108 181.63 690.931 205.374C674.754 229.118 650.762 277.697 673.24 286.02C687.611 291.357 711.772 266.099 724.84 249.415C734.686 236.394 743.79 222.825 752.107 208.778C752.654 207.349 752.107 207.012 751.308 206.76L751.394 206.676Z" fill="white"/>
<path d="M1078.29 450C1044.87 426.87 1004.86 415.19 964.253 416.716C953.261 417.013 942.492 419.899 932.826 425.144C923.159 430.387 914.867 437.836 908.622 446.89C891.312 416.675 857.109 398.142 804.209 398.561C759.42 399.069 714.806 410.137 672.824 420.55C634.7 430.006 598.747 438.926 566.811 438.905C502.356 438.905 455.422 398.394 456.977 326.489C459.751 200.414 566.222 86.9474 646.056 35.761C691.813 6.34372 730.09 -2.31339 755.301 0.502269C773.579 2.51946 795.553 23.6581 781.686 54.7983C761.31 100.395 733.158 96.5711 734.209 74.8021C734.645 69.1234 736.425 63.6293 739.396 58.7713C742.37 53.9131 746.453 49.8296 751.308 46.8556C756.464 44.0494 762.248 42.6031 768.117 42.6532C772.317 39.2492 775.217 14.3284 742.442 22.5234C709.67 30.7181 669.753 62.9512 632.106 104.556C594.459 146.16 535.886 224.747 521.39 307.285C514.625 345.568 519.12 415.372 609.626 414.614C644.522 414.328 686.976 403.74 732.692 392.339C787.661 378.632 847.341 363.749 904.251 364.185C940.553 364.032 976.205 373.797 1007.36 392.427C1034.34 409.237 1066.65 433.274 1078.12 449.831L1078.29 450Z" fill="white"/>
<path d="M253.701 286.524H344.542L341.559 265.847H277.315V240.633H320.593V219.62H277.315V198.187H340.34L343.366 177.511H253.744L253.701 286.524Z" fill="white"/>
<path d="M119.245 286.524H142.859V238.32H198.49V286.481H222.188V177.847H198.532V217.224H142.859V177.805H119.371L119.245 286.524Z" fill="white"/>
<path d="M0 199.028H36.219V286.398H59.9167V199.028H96.1358V177.763H0V199.028Z" fill="white"/>
<path d="M2772.27 178.099H2798.37L2755.38 250.213V286.733H2731.69V250.677L2688.27 178.057H2714.95L2743.75 228.908L2772.27 178.099Z" fill="white"/>
<path d="M2646.59 251.642V178.099L2669.67 177.973V286.607H2645.84L2593.11 211.761V286.607H2570.03V177.973H2594.58L2646.59 251.642Z" fill="white"/>
<path fill-rule="evenodd" clip-rule="evenodd" d="M2549.29 286.65H2524.37L2515.32 262.402H2467.63L2458.61 286.524H2433.87L2477.1 177.931H2506.21L2549.29 286.65ZM2491.63 198.901L2475.37 241.976L2507.76 241.936L2491.63 198.901Z" fill="white"/>
<path fill-rule="evenodd" clip-rule="evenodd" d="M2339.61 177.889H2395.46C2402.71 177.655 2409.93 179.183 2416.48 182.344C2421.92 185.041 2426.42 189.317 2429.41 194.615C2432.29 200.061 2433.8 206.127 2433.8 212.286C2433.8 218.446 2432.29 224.512 2429.41 229.957C2426.4 235.262 2421.9 239.56 2416.48 242.314C2409.93 245.488 2402.73 247.032 2395.46 246.809H2363.32V286.481H2339.61V177.889ZM2363.47 225.839H2395.04C2399.02 226.098 2402.93 224.82 2405.99 222.267C2408.53 219.559 2409.93 215.992 2409.93 212.286C2409.93 208.581 2408.53 205.014 2405.99 202.305C2402.89 199.821 2398.97 198.578 2394.99 198.817H2363.47V225.839Z" fill="white"/>
<path d="M2276.3 177.889H2308.11L2308.13 286.564H2285.21V206.718L2251.85 284.884H2236L2203.02 208.693V286.398H2180.08V177.889H2211.88L2244.4 253.534L2276.3 177.889Z" fill="white"/>
<path d="M2096.23 266.855C2096.22 266.855 2096.23 266.855 2096.23 266.855Z" fill="white"/>
<path fill-rule="evenodd" clip-rule="evenodd" d="M2126.17 281.144C2116.94 286.006 2106.64 288.463 2096.21 288.288L2096.08 288.331C2085.66 288.495 2075.35 286.038 2066.12 281.187C2057.51 276.581 2050.36 269.649 2045.49 261.182C2040.59 252.259 2038.01 242.242 2038.01 232.058C2038.01 221.876 2040.59 211.858 2045.49 202.936C2050.38 194.467 2057.54 187.537 2066.17 182.932C2075.45 178.221 2085.71 175.766 2096.13 175.766C2106.53 175.766 2116.8 178.221 2126.08 182.932C2134.83 187.486 2142.11 194.42 2147.09 202.936C2151.98 211.855 2154.55 221.865 2154.55 232.038C2154.55 242.21 2151.98 252.22 2147.09 261.139C2142.14 269.644 2134.88 276.577 2126.17 281.144ZM2078.98 262.402C2084.23 265.41 2090.18 266.949 2096.23 266.857C2102.28 266.989 2108.25 265.446 2113.48 262.402C2118.52 259.492 2122.64 255.226 2125.37 250.087C2128.19 244.496 2129.66 238.322 2129.66 232.058C2129.66 225.796 2128.19 219.622 2125.37 214.03C2122.66 208.851 2118.54 204.55 2113.48 201.633C2108.2 198.727 2102.27 197.203 2096.25 197.203C2090.23 197.203 2084.3 198.727 2079.02 201.633C2073.98 204.471 2069.83 208.663 2067.05 213.736C2064.13 219.288 2062.68 225.495 2062.85 231.766C2062.71 238.032 2064.15 244.233 2067.05 249.793C2069.76 255.035 2073.9 259.405 2078.98 262.402Z" fill="white"/>
<path d="M2006.88 284.128C1998.92 287.001 1990.51 288.423 1982.05 288.331L1982.17 288.457C1971.2 288.65 1960.34 286.123 1950.58 281.101C1941.58 276.475 1934.03 269.458 1928.76 260.82C1923.49 252.184 1920.7 242.262 1920.7 232.144C1920.7 222.025 1923.49 212.102 1928.76 203.465C1934.03 194.829 1941.58 187.811 1950.58 183.184C1960.22 178.214 1970.95 175.702 1981.8 175.872C1990.26 175.72 1998.68 177.145 2006.63 180.074C2013.82 182.702 2020.22 187.112 2025.24 192.892L2010.49 209.281C2006.74 205.353 2002.26 202.185 1997.3 199.952C1992.59 197.977 1987.53 196.976 1982.43 197.01C1975.87 196.923 1969.41 198.515 1963.64 201.633C1958.19 204.572 1953.63 208.927 1950.45 214.24C1947.12 219.599 1945.39 225.794 1945.45 232.101C1945.36 238.318 1947 244.438 1950.19 249.779C1953.37 255.121 1957.97 259.477 1963.48 262.359C1969.34 265.502 1975.9 267.095 1982.55 266.983C1987.86 267.07 1993.14 266.06 1998.04 264.013C2002.94 261.967 2007.37 258.928 2011.04 255.089L2025.83 271.226C2020.73 277.083 2014.2 281.524 2006.88 284.128Z" fill="white"/>
</g>
<defs>
<clipPath id="clip0_154_5">
<rect width="2812" height="450" fill="white"/>
</clipPath>
</defs>
</svg>
